<svg width="238" height="51" viewBox="0 0 238 51" fill="none" xmlns="http://www.w3.org/2000/svg">
<path d="M17.508 25.345C17.508 23.869 17.8497 22.5433 18.533 21.368C19.2163 20.1927 20.1457 19.2633 21.321 18.58C22.5237 17.924 23.9177 17.596 25.503 17.596H39.771C40.509 17.596 41.1787 17.4183 41.78 17.063C42.3813 16.7077 42.8597 16.2293 43.215 15.628C43.5703 15.0267 43.748 14.3707 43.748 13.66C43.748 12.9493 43.5703 12.2933 43.215 11.692C42.8597 11.118 42.3813 10.6533 41.78 10.298C41.1787 9.97 40.509 9.806 39.771 9.806H18V5.87H39.238C40.7413 5.87 42.0943 6.198 43.297 6.854C44.4997 7.51 45.4427 8.42567 46.126 9.601C46.8367 10.7763 47.192 12.1293 47.192 13.66C47.192 15.218 46.8367 16.5847 46.126 17.76C45.4427 18.9353 44.4997 19.851 43.297 20.507C42.0943 21.163 40.7413 21.491 39.238 21.491H24.97C24.2047 21.491 23.5213 21.6687 22.92 22.024C22.346 22.3793 21.8813 22.844 21.526 23.418C21.1707 24.0193 20.993 24.6617 20.993 25.345C20.993 26.0283 21.1707 26.657 21.526 27.231C21.8813 27.805 22.346 28.256 22.92 28.584C23.5213 28.9393 24.2047 29.117 24.97 29.117H39.238C40.7413 29.117 42.0943 29.445 43.297 30.101C44.4997 30.7843 45.4427 31.7137 46.126 32.889C46.8367 34.0643 47.192 35.431 47.192 36.989C47.192 38.5197 46.8367 39.8727 46.126 41.048C45.4427 42.2233 44.4997 43.139 43.297 43.795C42.0943 44.451 40.7413 44.779 39.238 44.779H18V40.843H39.771C40.509 40.843 41.1787 40.6653 41.78 40.31C42.3813 39.982 42.8597 39.5173 43.215 38.916C43.5703 38.342 43.748 37.6997 43.748 36.989C43.748 36.251 43.5703 35.5813 43.215 34.98C42.8597 34.406 42.3813 33.9413 41.78 33.586C41.1787 33.2307 40.509 33.053 39.771 33.053H25.503C23.9177 33.053 22.5237 32.7113 21.321 32.028C20.1457 31.372 19.2163 30.4563 18.533 29.281C17.8497 28.133 17.508 26.821 17.508 25.345Z" fill="black"/>
<path d="M74.84 26L68.672 10.328H68.6C68.632 10.616 68.648 10.944 68.648 11.312C68.664 11.664 68.672 12.04 68.672 12.44C68.688 12.824 68.696 13.224 68.696 13.64V26H67.4V8.864H69.488L75.392 23.888H75.488L81.464 8.864H83.504V26H82.136V13.496C82.136 13.144 82.136 12.784 82.136 12.416C82.152 12.048 82.168 11.688 82.184 11.336C82.2 10.984 82.216 10.656 82.232 10.352H82.16L75.968 26H74.84ZM88.3537 8.864H89.6497V20.528C89.6497 20.816 89.6497 21.12 89.6497 21.44C89.6497 21.76 89.6417 22.072 89.6257 22.376C89.6257 22.68 89.6177 22.96 89.6017 23.216C89.5857 23.472 89.5697 23.704 89.5537 23.912H89.6257L99.5857 8.864H101.05V26H99.7297V14.528C99.7297 14.192 99.7297 13.848 99.7297 13.496C99.7457 13.144 99.7617 12.808 99.7777 12.488C99.7937 12.168 99.8017 11.872 99.8017 11.6C99.8177 11.328 99.8337 11.096 99.8497 10.904H99.7777L89.8177 26H88.3537V8.864ZM110.133 8.864C112.197 8.864 113.741 9.264 114.765 10.064C115.789 10.864 116.301 12.08 116.301 13.712C116.301 14.528 116.165 15.264 115.893 15.92C115.637 16.576 115.237 17.136 114.693 17.6C114.165 18.048 113.485 18.392 112.653 18.632C111.837 18.872 110.869 18.992 109.749 18.992H107.253V26H105.861V8.864H110.133ZM109.989 10.088H107.253V17.792H109.605C110.709 17.792 111.653 17.672 112.437 17.432C113.237 17.176 113.837 16.76 114.237 16.184C114.653 15.592 114.861 14.792 114.861 13.784C114.861 12.504 114.469 11.568 113.685 10.976C112.901 10.384 111.669 10.088 109.989 10.088Z" fill="black"/>
<path d="M67.5417 43V28.72H77.8817V43H76.7417V29.76H68.7017V43H67.5417ZM86.8177 39.58C86.4844 40.3267 86.131 40.9733 85.7577 41.52C85.3844 42.0667 84.9377 42.4867 84.4177 42.78C83.911 43.06 83.271 43.2 82.4977 43.2C82.111 43.2 81.771 43.1667 81.4777 43.1C81.1977 43.0467 80.9444 42.98 80.7177 42.9V41.74C80.9577 41.86 81.2177 41.9533 81.4977 42.02C81.791 42.0867 82.0977 42.12 82.4177 42.12C82.9644 42.12 83.4244 42.02 83.7977 41.82C84.1844 41.6067 84.5177 41.3 84.7977 40.9C85.0777 40.4867 85.351 39.98 85.6177 39.38L80.0577 28.72H81.3377L85.6577 37.12C85.7377 37.2533 85.8044 37.3867 85.8577 37.52C85.9244 37.6533 85.9844 37.7867 86.0377 37.92C86.1044 38.0533 86.1644 38.1933 86.2177 38.34H86.2577C86.311 38.22 86.3644 38.0933 86.4177 37.96C86.471 37.8133 86.5244 37.6733 86.5777 37.54C86.6444 37.4067 86.6977 37.2867 86.7377 37.18L90.5177 28.72H91.7577L86.8177 39.58ZM97.6522 43H96.4922V29.76H91.8922V28.72H102.252V29.76H97.6522V43ZM112.218 43H104.378V28.72H112.218V29.76H105.538V35H111.838V36.02H105.538V41.96H112.218V43ZM131.672 43H115.432V28.72H116.592V41.96H122.972V28.72H124.112V41.96H130.512V28.72H131.672V43ZM143.507 43H135.667V28.72H143.507V29.76H136.827V35H143.127V36.02H136.827V41.96H143.507V43ZM152.801 29.56C151.921 29.56 151.128 29.7133 150.421 30.02C149.728 30.3133 149.141 30.74 148.661 31.3C148.181 31.8467 147.815 32.5067 147.561 33.28C147.308 34.04 147.181 34.8867 147.181 35.82C147.181 37.1 147.381 38.22 147.781 39.18C148.181 40.1267 148.781 40.86 149.581 41.38C150.395 41.9 151.401 42.16 152.601 42.16C153.295 42.16 153.935 42.1067 154.521 42C155.108 41.8933 155.648 41.76 156.141 41.6V42.6C155.661 42.7867 155.121 42.9333 154.521 43.04C153.935 43.1467 153.248 43.2 152.461 43.2C151.035 43.2 149.835 42.8933 148.861 42.28C147.901 41.6667 147.175 40.8067 146.681 39.7C146.201 38.5933 145.961 37.3 145.961 35.82C145.961 34.7667 146.115 33.7933 146.421 32.9C146.728 32.0067 147.175 31.2333 147.761 30.58C148.348 29.9267 149.061 29.42 149.901 29.06C150.755 28.7 151.728 28.52 152.821 28.52C153.501 28.52 154.155 28.5867 154.781 28.72C155.421 28.8533 156.015 29.0467 156.561 29.3L156.101 30.32C155.595 30.0667 155.061 29.88 154.501 29.76C153.955 29.6267 153.388 29.56 152.801 29.56ZM163.062 43H161.902V29.76H157.302V28.72H167.662V29.76H163.062V43ZM173.728 28.72C174.915 28.72 175.888 28.84 176.648 29.08C177.408 29.32 177.968 29.7 178.328 30.22C178.701 30.7267 178.888 31.3867 178.888 32.2C178.888 32.7467 178.781 33.2467 178.568 33.7C178.368 34.1533 178.061 34.5333 177.648 34.84C177.235 35.1333 176.728 35.3333 176.128 35.44V35.5C176.821 35.62 177.401 35.82 177.868 36.1C178.348 36.38 178.708 36.76 178.948 37.24C179.188 37.7067 179.308 38.2733 179.308 38.94C179.308 39.86 179.095 40.6267 178.668 41.24C178.255 41.84 177.668 42.2867 176.908 42.58C176.161 42.86 175.288 43 174.288 43H169.788V28.72H173.728ZM174.008 35.02C175.328 35.02 176.275 34.7933 176.848 34.34C177.421 33.8867 177.708 33.2133 177.708 32.32C177.708 31.4 177.395 30.74 176.768 30.34C176.141 29.94 175.135 29.74 173.748 29.74H170.948V35.02H174.008ZM170.948 36.02V42H174.208C175.515 42 176.488 41.7333 177.128 41.2C177.768 40.6667 178.088 39.8933 178.088 38.88C178.088 38.2133 177.941 37.6733 177.648 37.26C177.355 36.8333 176.908 36.52 176.308 36.32C175.708 36.12 174.948 36.02 174.028 36.02H170.948ZM182.425 28.72H183.505V38.44C183.505 38.68 183.505 38.9333 183.505 39.2C183.505 39.4667 183.498 39.7267 183.485 39.98C183.485 40.2333 183.478 40.4667 183.465 40.68C183.452 40.8933 183.438 41.0867 183.425 41.26H183.485L191.785 28.72H193.005V43H191.905V33.44C191.905 33.16 191.905 32.8733 191.905 32.58C191.918 32.2867 191.932 32.0067 191.945 31.74C191.958 31.4733 191.965 31.2267 191.965 31C191.978 30.7733 191.992 30.58 192.005 30.42H191.945L183.645 43H182.425V28.72ZM205.774 24.44C205.734 25.0667 205.581 25.5867 205.314 26C205.061 26.4133 204.694 26.7267 204.214 26.94C203.734 27.14 203.141 27.24 202.434 27.24C201.728 27.24 201.134 27.14 200.654 26.94C200.188 26.7267 199.834 26.42 199.594 26.02C199.368 25.6067 199.228 25.08 199.174 24.44H200.254C200.321 25.16 200.521 25.6667 200.854 25.96C201.201 26.2533 201.734 26.4 202.454 26.4C203.134 26.4 203.661 26.2533 204.034 25.96C204.408 25.6667 204.621 25.16 204.674 24.44H205.774ZM197.034 28.72H198.114V38.44C198.114 38.68 198.114 38.9333 198.114 39.2C198.114 39.4667 198.108 39.7267 198.094 39.98C198.094 40.2333 198.088 40.4667 198.074 40.68C198.061 40.8933 198.048 41.0867 198.034 41.26H198.094L206.394 28.72H207.614V43H206.514V33.44C206.514 33.16 206.514 32.8733 206.514 32.58C206.528 32.2867 206.541 32.0067 206.554 31.74C206.568 31.4733 206.574 31.2267 206.574 31C206.588 30.7733 206.601 30.58 206.614 30.42H206.554L198.254 43H197.034V28.72Z" fill="black"/>
</svg>
